<svg version="1.1" xmlns="http://www.w3.org/2000/svg" viewBox="0 0 169.63540656224905 185.07876951947947" width="339.2708131244981" height="370.15753903895893">
  <!-- svg-source:excalidraw -->
  
  <defs>
    <style class="style-fonts">
      @font-face {
        font-family: "Virgil";
        src: url("https://excalidraw.com/Virgil.woff2");
      }
      @font-face {
        font-family: "Cascadia";
        src: url("https://excalidraw.com/Cascadia.woff2");
      }
      @font-face {
        font-family: "Assistant";
        src: url("https://excalidraw.com/Assistant-Regular.woff2");
      }
    </style>
    
  </defs>
  <rect x="0" y="0" width="169.63540656224905" height="185.07876951947947" fill="#ffffff"></rect><g transform="translate(10 67.84828049284806) rotate(0 73.10085674469428 -23.247897787744478)" stroke="none"><path fill="#1e1e1e" d="M -1.82,-2.53 Q -1.82,-2.53 2.83,-5.81 7.50,-9.09 14.28,-12.89 21.07,-16.68 29.58,-20.60 38.09,-24.52 45.31,-27.67 52.52,-30.81 63.00,-34.82 73.48,-38.82 81.15,-41.33 88.83,-43.84 95.26,-45.36 101.68,-46.88 107.35,-47.54 113.02,-48.20 117.85,-48.47 122.67,-48.74 126.19,-49.01 129.70,-49.27 132.63,-49.51 135.56,-49.75 139.01,-50.15 142.45,-50.55 144.63,-50.40 146.81,-50.24 147.46,-50.03 148.11,-49.83 148.66,-49.42 149.21,-49.02 149.60,-48.46 149.99,-47.90 150.18,-47.25 150.37,-46.60 150.35,-45.92 150.32,-45.24 150.08,-44.60 149.84,-43.96 149.41,-43.44 148.97,-42.91 148.40,-42.55 147.82,-42.19 147.16,-42.03 146.49,-41.88 145.81,-41.94 145.14,-42.00 144.51,-42.28 143.89,-42.55 143.39,-43.01 142.89,-43.47 142.56,-44.07 142.23,-44.67 142.11,-45.34 141.99,-46.01 142.09,-46.68 142.19,-47.35 142.50,-47.96 142.80,-48.57 143.29,-49.04 143.78,-49.52 144.39,-49.82 145.01,-50.11 145.68,-50.20 146.36,-50.28 147.02,-50.15 147.69,-50.01 148.28,-49.67 148.87,-49.33 149.32,-48.82 149.77,-48.30 150.03,-47.67 150.29,-47.05 150.34,-46.37 150.39,-45.69 150.22,-45.03 150.05,-44.37 149.67,-43.80 149.30,-43.23 148.76,-42.81 148.23,-42.39 147.59,-42.16 146.94,-41.93 146.26,-41.92 145.58,-41.91 145.58,-41.91 145.58,-41.91 144.04,-42.16 142.50,-42.40 139.09,-42.74 135.68,-43.08 132.78,-43.23 129.89,-43.37 126.43,-43.40 122.98,-43.44 118.31,-43.17 113.63,-42.90 108.27,-42.29 102.91,-41.67 96.71,-40.19 90.52,-38.71 82.97,-36.22 75.43,-33.73 65.09,-29.74 54.75,-25.75 47.61,-22.58 40.46,-19.41 32.19,-15.53 23.91,-11.65 17.45,-7.95 10.99,-4.25 6.41,-0.85 1.82,2.53 1.49,2.71 1.16,2.89 0.80,2.99 0.44,3.09 0.06,3.10 -0.31,3.10 -0.67,3.02 -1.04,2.94 -1.38,2.77 -1.72,2.60 -2.00,2.36 -2.29,2.12 -2.51,1.81 -2.73,1.50 -2.87,1.16 -3.01,0.81 -3.07,0.43 -3.12,0.06 -3.08,-0.30 -3.04,-0.68 -2.92,-1.03 -2.79,-1.39 -2.58,-1.70 -2.38,-2.02 -2.10,-2.27 -1.82,-2.53 -1.82,-2.53 L -1.82,-2.53 Z"></path></g><g transform="translate(78.17059631426855 38.389018944229974) rotate(0 -2.377226347072792 68.34487528762475)" stroke="none"><path fill="#1e1e1e" d="M 3.12,0 Q 3.12,0 3.05,4.30 2.98,8.61 2.93,14.02 2.88,19.43 2.85,26.12 2.81,32.80 2.79,40.94 2.76,49.08 2.74,57.22 2.72,65.36 2.71,72.00 2.69,78.65 2.68,85.59 2.67,92.54 2.38,98.38 2.09,104.21 1.56,109.13 1.03,114.05 0.88,117.27 0.73,120.49 0.55,123.35 0.36,126.21 0.19,128.46 0.03,130.70 -0.26,133.90 -0.56,137.09 -0.74,137.75 -0.91,138.41 -1.29,138.98 -1.66,139.55 -2.20,139.96 -2.74,140.38 -3.38,140.61 -4.02,140.83 -4.71,140.84 -5.39,140.84 -6.03,140.63 -6.68,140.42 -7.23,140.02 -7.77,139.61 -8.16,139.05 -8.55,138.49 -8.74,137.84 -8.93,137.18 -8.90,136.50 -8.87,135.82 -8.62,135.19 -8.38,134.55 -7.94,134.03 -7.51,133.51 -6.93,133.15 -6.35,132.79 -5.68,132.64 -5.02,132.49 -4.34,132.55 -3.67,132.62 -3.05,132.90 -2.42,133.18 -1.93,133.64 -1.43,134.10 -1.10,134.70 -0.78,135.30 -0.66,135.97 -0.54,136.64 -0.64,137.31 -0.75,137.99 -1.06,138.59 -1.37,139.20 -1.86,139.67 -2.35,140.14 -2.97,140.43 -3.58,140.73 -4.26,140.81 -4.93,140.89 -5.60,140.75 -6.27,140.61 -6.85,140.26 -7.44,139.92 -7.89,139.41 -8.33,138.89 -8.59,138.26 -8.85,137.63 -8.89,136.95 -8.94,136.27 -8.94,136.27 -8.94,136.27 -8.20,132.88 -7.47,129.48 -6.93,127.40 -6.40,125.31 -5.84,122.58 -5.28,119.86 -4.76,116.67 -4.24,113.48 -3.73,108.72 -3.22,103.95 -2.95,98.24 -2.67,92.54 -2.68,85.59 -2.69,78.65 -2.71,72.00 -2.72,65.36 -2.74,57.22 -2.76,49.08 -2.79,40.94 -2.81,32.80 -2.85,26.12 -2.88,19.43 -2.93,14.02 -2.98,8.61 -3.05,4.30 -3.12,0 -3.07,-0.37 -3.03,-0.74 -2.90,-1.09 -2.76,-1.45 -2.55,-1.76 -2.33,-2.07 -2.05,-2.32 -1.77,-2.57 -1.44,-2.74 -1.10,-2.92 -0.74,-3.01 -0.37,-3.10 0.00,-3.10 0.37,-3.10 0.74,-3.01 1.10,-2.92 1.44,-2.74 1.77,-2.57 2.05,-2.32 2.33,-2.07 2.55,-1.76 2.76,-1.45 2.90,-1.09 3.03,-0.74 3.07,-0.37 3.12,0.00 3.12,0.00 L 3.12,0 Z"></path></g><g stroke-linecap="round" transform="translate(19.42983821380949 10) rotate(0 70.10278417421978 67.51694922398838)"><path d="M140.21 67.52 C140.21 70.04, 140.06 72.57, 139.76 75.08 C139.47 77.58, 139.03 80.08, 138.45 82.54 C137.87 85, 137.14 87.44, 136.27 89.82 C135.41 92.19, 134.4 94.54, 133.26 96.81 C132.13 99.08, 130.85 101.3, 129.46 103.44 C128.07 105.57, 126.54 107.64, 124.91 109.61 C123.28 111.58, 121.52 113.48, 119.67 115.26 C117.82 117.04, 115.86 118.73, 113.81 120.3 C111.77 121.87, 109.62 123.34, 107.4 124.69 C105.18 126.03, 102.88 127.25, 100.52 128.35 C98.16 129.44, 95.73 130.41, 93.26 131.25 C90.79 132.08, 88.25 132.78, 85.7 133.34 C83.15 133.9, 80.55 134.33, 77.95 134.61 C75.35 134.89, 72.72 135.03, 70.1 135.03 C67.49 135.03, 64.85 134.89, 62.25 134.61 C59.65 134.33, 57.05 133.9, 54.5 133.34 C51.95 132.78, 49.42 132.08, 46.95 131.25 C44.48 130.41, 42.04 129.44, 39.69 128.35 C37.33 127.25, 35.02 126.03, 32.81 124.69 C30.59 123.34, 28.44 121.87, 26.39 120.3 C24.35 118.73, 22.38 117.04, 20.53 115.26 C18.68 113.48, 16.93 111.58, 15.29 109.61 C13.66 107.64, 12.14 105.57, 10.75 103.44 C9.35 101.3, 8.08 99.08, 6.94 96.81 C5.81 94.54, 4.8 92.19, 3.93 89.82 C3.07 87.44, 2.34 85, 1.76 82.54 C1.18 80.08, 0.73 77.58, 0.44 75.08 C0.15 72.57, 0 70.04, 0 67.52 C0 65, 0.15 62.46, 0.44 59.96 C0.73 57.45, 1.18 54.95, 1.76 52.49 C2.34 50.04, 3.07 47.6, 3.93 45.22 C4.8 42.84, 5.81 40.49, 6.94 38.22 C8.08 35.95, 9.35 33.73, 10.75 31.6 C12.14 29.46, 13.66 27.39, 15.29 25.42 C16.93 23.45, 18.68 21.56, 20.53 19.78 C22.38 17.99, 24.35 16.3, 26.39 14.73 C28.44 13.16, 30.59 11.69, 32.81 10.35 C35.02 9.01, 37.33 7.78, 39.69 6.69 C42.04 5.59, 44.48 4.62, 46.95 3.79 C49.42 2.96, 51.95 2.25, 54.5 1.69 C57.05 1.13, 59.65 0.71, 62.25 0.42 C64.85 0.14, 67.49 0, 70.1 0 C72.72 0, 75.35 0.14, 77.95 0.42 C80.55 0.71, 83.15 1.13, 85.7 1.69 C88.25 2.25, 90.79 2.96, 93.26 3.79 C95.73 4.62, 98.16 5.59, 100.52 6.69 C102.88 7.78, 105.18 9.01, 107.4 10.35 C109.62 11.69, 111.77 13.16, 113.81 14.73 C115.86 16.3, 117.82 17.99, 119.67 19.78 C121.52 21.56, 123.28 23.45, 124.91 25.42 C126.54 27.39, 128.07 29.46, 129.46 31.6 C130.85 33.73, 132.13 35.95, 133.26 38.22 C134.4 40.49, 135.41 42.84, 136.27 45.22 C137.14 47.6, 137.87 50.04, 138.45 52.49 C139.03 54.95, 139.47 57.45, 139.76 59.96 C140.06 62.46, 140.13 66.26, 140.21 67.52 C140.28 68.78, 140.28 66.26, 140.21 67.52" stroke="#1e1e1e" stroke-width="2" fill="none"></path></g></svg>